<svg xmlns="http://www.w3.org/2000/svg" viewBox="0 0 800 510" font-family="-apple-system,BlinkMacSystemFont,'Segoe UI',system-ui,sans-serif">
  <text x="400" y="28" text-anchor="middle" font-size="17" font-weight="700" fill="#2A2028">Product space: relatedness across HS categories</text>
  <text x="400" y="48" text-anchor="middle" font-size="11.5" fill="#7A8A9A">Products co-occurring across regions are positioned closer (Hidalgo et al., 2007). Bright dots = RCA &gt; 1.</text>

  <!-- Cluster 1: Construction - teal -->
  <line x1="150" y1="120" x2="185" y2="148" stroke="#0D9B8A" stroke-width="0.8" opacity="0.5"/><line x1="185" y1="148" x2="222" y2="122" stroke="#0D9B8A" stroke-width="0.8" opacity="0.5"/><line x1="150" y1="120" x2="222" y2="122" stroke="#0D9B8A" stroke-width="0.8" opacity="0.4"/><line x1="185" y1="148" x2="218" y2="172" stroke="#0D9B8A" stroke-width="0.6" opacity="0.3"/><line x1="222" y1="122" x2="255" y2="140" stroke="#0D9B8A" stroke-width="0.6" opacity="0.3"/><line x1="115" y1="148" x2="150" y2="120" stroke="#0D9B8A" stroke-width="0.8" opacity="0.45"/><line x1="115" y1="148" x2="185" y2="148" stroke="#0D9B8A" stroke-width="0.6" opacity="0.3"/>
  <circle cx="150" cy="120" r="10" fill="#0D9B8A" opacity="0.9"/><circle cx="185" cy="148" r="8" fill="#0D9B8A" opacity="0.85"/><circle cx="222" cy="122" r="9" fill="#0D9B8A" opacity="0.9"/><circle cx="218" cy="172" r="5" fill="#0D9B8A" opacity="0.4"/><circle cx="255" cy="140" r="4" fill="#0D9B8A" opacity="0.35"/><circle cx="115" cy="148" r="7" fill="#0D9B8A" opacity="0.8"/>

  <!-- Cluster 2: Electronics - crimson -->
  <line x1="480" y1="108" x2="518" y2="138" stroke="#C0284A" stroke-width="0.8" opacity="0.5"/><line x1="518" y1="138" x2="558" y2="112" stroke="#C0284A" stroke-width="0.8" opacity="0.5"/><line x1="480" y1="108" x2="558" y2="112" stroke="#C0284A" stroke-width="0.8" opacity="0.4"/><line x1="518" y1="138" x2="548" y2="160" stroke="#C0284A" stroke-width="0.6" opacity="0.3"/><line x1="558" y1="112" x2="592" y2="130" stroke="#C0284A" stroke-width="0.6" opacity="0.3"/><line x1="592" y1="130" x2="618" y2="108" stroke="#C0284A" stroke-width="0.6" opacity="0.3"/><line x1="558" y1="112" x2="618" y2="108" stroke="#C0284A" stroke-width="0.8" opacity="0.4"/>
  <circle cx="480" cy="108" r="8" fill="#C0284A" opacity="0.85"/><circle cx="518" cy="138" r="10" fill="#C0284A" opacity="0.9"/><circle cx="558" cy="112" r="9" fill="#C0284A" opacity="0.9"/><circle cx="548" cy="160" r="5" fill="#C0284A" opacity="0.4"/><circle cx="592" cy="130" r="6" fill="#C0284A" opacity="0.45"/><circle cx="618" cy="108" r="6" fill="#C0284A" opacity="0.8"/>

  <!-- Cluster 3: Metals - amber -->
  <line x1="310" y1="265" x2="350" y2="295" stroke="#D48A20" stroke-width="0.8" opacity="0.5"/><line x1="350" y1="295" x2="392" y2="270" stroke="#D48A20" stroke-width="0.8" opacity="0.5"/><line x1="310" y1="265" x2="392" y2="270" stroke="#D48A20" stroke-width="0.8" opacity="0.4"/><line x1="275" y1="293" x2="310" y2="265" stroke="#D48A20" stroke-width="0.8" opacity="0.45"/><line x1="275" y1="293" x2="350" y2="295" stroke="#D48A20" stroke-width="0.6" opacity="0.3"/><line x1="392" y1="270" x2="422" y2="296" stroke="#D48A20" stroke-width="0.6" opacity="0.3"/>
  <circle cx="310" cy="265" r="9" fill="#D48A20" opacity="0.85"/><circle cx="350" cy="295" r="12" fill="#D48A20" opacity="0.9"/><circle cx="392" cy="270" r="8" fill="#D48A20" opacity="0.85"/><circle cx="275" cy="293" r="6" fill="#D48A20" opacity="0.4"/><circle cx="422" cy="296" r="5" fill="#D48A20" opacity="0.35"/>

  <!-- Cluster 4: Chemicals - blue -->
  <line x1="120" y1="348" x2="155" y2="378" stroke="#3A6EA5" stroke-width="0.8" opacity="0.5"/><line x1="155" y1="378" x2="192" y2="352" stroke="#3A6EA5" stroke-width="0.8" opacity="0.5"/><line x1="120" y1="348" x2="192" y2="352" stroke="#3A6EA5" stroke-width="0.8" opacity="0.4"/><line x1="155" y1="378" x2="185" y2="402" stroke="#3A6EA5" stroke-width="0.6" opacity="0.3"/><line x1="90" y1="375" x2="120" y2="348" stroke="#3A6EA5" stroke-width="0.8" opacity="0.45"/>
  <circle cx="120" cy="348" r="8" fill="#3A6EA5" opacity="0.85"/><circle cx="155" cy="378" r="9" fill="#3A6EA5" opacity="0.9"/><circle cx="192" cy="352" r="7" fill="#3A6EA5" opacity="0.8"/><circle cx="185" cy="402" r="5" fill="#3A6EA5" opacity="0.4"/><circle cx="90" cy="375" r="6" fill="#3A6EA5" opacity="0.8"/>

  <!-- Cluster 5: Textiles - pink -->
  <line x1="530" y1="330" x2="568" y2="360" stroke="#B04878" stroke-width="0.8" opacity="0.5"/><line x1="568" y1="360" x2="605" y2="335" stroke="#B04878" stroke-width="0.8" opacity="0.5"/><line x1="530" y1="330" x2="605" y2="335" stroke="#B04878" stroke-width="0.8" opacity="0.4"/><line x1="568" y1="360" x2="595" y2="385" stroke="#B04878" stroke-width="0.6" opacity="0.3"/>
  <circle cx="530" cy="330" r="8" fill="#B04878" opacity="0.85"/><circle cx="568" cy="360" r="9" fill="#B04878" opacity="0.9"/><circle cx="605" cy="335" r="7" fill="#B04878" opacity="0.8"/><circle cx="595" cy="385" r="5" fill="#B04878" opacity="0.4"/>

  <!-- Cross-cluster -->
  <line x1="218" y1="172" x2="275" y2="293" stroke="#7A8A9A" stroke-width="0.5" stroke-dasharray="4 3" opacity="0.3"/><line x1="548" y1="160" x2="530" y2="330" stroke="#7A8A9A" stroke-width="0.5" stroke-dasharray="4 3" opacity="0.3"/><line x1="255" y1="140" x2="480" y2="108" stroke="#7A8A9A" stroke-width="0.5" stroke-dasharray="4 3" opacity="0.25"/><line x1="192" y1="352" x2="275" y2="293" stroke="#7A8A9A" stroke-width="0.5" stroke-dasharray="4 3" opacity="0.3"/><line x1="422" y1="296" x2="530" y2="330" stroke="#7A8A9A" stroke-width="0.5" stroke-dasharray="4 3" opacity="0.25"/>

  <circle cx="370" cy="195" r="3" fill="#7A8A9A" opacity="0.3"/><circle cx="420" cy="215" r="3" fill="#7A8A9A" opacity="0.3"/><circle cx="300" cy="175" r="3" fill="#7A8A9A" opacity="0.3"/><circle cx="460" cy="245" r="3" fill="#7A8A9A" opacity="0.3"/><circle cx="380" cy="370" r="3" fill="#7A8A9A" opacity="0.3"/>

  <!-- Legend -->
  <circle cx="80" cy="442" r="5" fill="#0D9B8A" opacity="0.9"/><text x="92" y="446" font-size="10" fill="#2A2028">Construction &amp; building</text>
  <circle cx="250" cy="442" r="5" fill="#C0284A" opacity="0.9"/><text x="262" y="446" font-size="10" fill="#2A2028">Electronics &amp; instruments</text>
  <circle cx="440" cy="442" r="5" fill="#D48A20" opacity="0.9"/><text x="452" y="446" font-size="10" fill="#2A2028">Metals &amp; machinery</text>
  <circle cx="80" cy="462" r="5" fill="#3A6EA5" opacity="0.9"/><text x="92" y="466" font-size="10" fill="#2A2028">Chemicals &amp; environment</text>
  <circle cx="280" cy="462" r="5" fill="#B04878" opacity="0.9"/><text x="292" y="466" font-size="10" fill="#2A2028">Textiles &amp; apparel</text>
  <circle cx="450" cy="462" r="5" fill="#7A8A9A" opacity="0.3"/><text x="462" y="466" font-size="10" fill="#7A8A9A">Unassigned / weak presence</text>

  <text x="400" y="496" text-anchor="middle" font-size="10.5" fill="#7A8A9A">Node size proportional to employment share. Bright nodes = RCA &gt; 1 (above-average regional specialisation).</text>
</svg>
