<svg xmlns="http://www.w3.org/2000/svg" viewBox="0 0 800 420" font-family="-apple-system,BlinkMacSystemFont,'Segoe UI',system-ui,sans-serif">
  <defs>
    <marker id="a" viewBox="0 0 10 10" refX="8" refY="5" markerWidth="6" markerHeight="6" orient="auto-start-reverse">
      <path d="M2 1L8 5L2 9" fill="none" stroke="#2A2028" stroke-width="1.5" stroke-linecap="round" stroke-linejoin="round"/>
    </marker>
  </defs>

  <text x="400" y="30" text-anchor="middle" font-size="17" font-weight="700" fill="#2A2028">Three-phase analytical framework</text>
  <text x="400" y="50" text-anchor="middle" font-size="11.5" fill="#7A8A9A">Stocktaking, cluster identification, and policy synthesis, all conducted at the firm level</text>

  <rect x="40" y="72" width="220" height="54" rx="8" fill="#0D9B8A" fill-opacity="0.15" stroke="#0D9B8A" stroke-width="1.2"/>
  <text x="150" y="93" text-anchor="middle" font-size="14" font-weight="700" fill="#0A7A6C">Phase 1</text>
  <text x="150" y="110" text-anchor="middle" font-size="11" font-weight="500" fill="#0D9B8A">Stocktaking</text>

  <line x1="260" y1="99" x2="288" y2="99" stroke="#2A2028" stroke-width="1.2" marker-end="url(#a)"/>

  <rect x="290" y="72" width="220" height="54" rx="8" fill="#C0284A" fill-opacity="0.12" stroke="#C0284A" stroke-width="1.2"/>
  <text x="400" y="93" text-anchor="middle" font-size="14" font-weight="700" fill="#9A1E3A">Phase 2</text>
  <text x="400" y="110" text-anchor="middle" font-size="11" font-weight="500" fill="#C0284A">Cluster identification</text>

  <line x1="510" y1="99" x2="538" y2="99" stroke="#2A2028" stroke-width="1.2" marker-end="url(#a)"/>

  <rect x="540" y="72" width="220" height="54" rx="8" fill="#D48A20" fill-opacity="0.12" stroke="#D48A20" stroke-width="1.2"/>
  <text x="650" y="93" text-anchor="middle" font-size="14" font-weight="700" fill="#A86A12">Phase 3</text>
  <text x="650" y="110" text-anchor="middle" font-size="11" font-weight="500" fill="#D48A20">Policy synthesis</text>

  <line x1="150" y1="126" x2="150" y2="152" stroke="#0D9B8A" stroke-width="1" marker-end="url(#a)"/>
  <line x1="400" y1="126" x2="400" y2="152" stroke="#C0284A" stroke-width="1" marker-end="url(#a)"/>
  <line x1="650" y1="126" x2="650" y2="152" stroke="#D48A20" stroke-width="1" marker-end="url(#a)"/>

  <rect x="40" y="154" width="105" height="36" rx="5" fill="#0D9B8A" fill-opacity="0.08" stroke="#0D9B8A" stroke-width="0.6"/>
  <text x="92" y="177" text-anchor="middle" font-size="10.5" font-weight="500" fill="#0A7A6C">Industries</text>
  <rect x="155" y="154" width="105" height="36" rx="5" fill="#0D9B8A" fill-opacity="0.08" stroke="#0D9B8A" stroke-width="0.6"/>
  <text x="207" y="177" text-anchor="middle" font-size="10.5" font-weight="500" fill="#0A7A6C">Products</text>
  <rect x="40" y="198" width="105" height="36" rx="5" fill="#0D9B8A" fill-opacity="0.08" stroke="#0D9B8A" stroke-width="0.6"/>
  <text x="92" y="221" text-anchor="middle" font-size="10.5" font-weight="500" fill="#0A7A6C">Patents</text>
  <rect x="155" y="198" width="105" height="36" rx="5" fill="#0D9B8A" fill-opacity="0.08" stroke="#0D9B8A" stroke-width="0.6"/>
  <text x="207" y="221" text-anchor="middle" font-size="10.5" font-weight="500" fill="#0A7A6C">Publications</text>
  <rect x="40" y="242" width="105" height="36" rx="5" fill="#0D9B8A" fill-opacity="0.08" stroke="#0D9B8A" stroke-width="0.6"/>
  <text x="92" y="265" text-anchor="middle" font-size="10.5" font-weight="500" fill="#0A7A6C">Workforce skills</text>
  <rect x="155" y="242" width="105" height="36" rx="5" fill="#0D9B8A" fill-opacity="0.08" stroke="#0D9B8A" stroke-width="0.6"/>
  <text x="207" y="265" text-anchor="middle" font-size="10.5" font-weight="500" fill="#0A7A6C">Innosuisse</text>
  <rect x="40" y="286" width="105" height="36" rx="5" fill="#0D9B8A" fill-opacity="0.08" stroke="#0D9B8A" stroke-width="0.6"/>
  <text x="92" y="309" text-anchor="middle" font-size="10.5" font-weight="500" fill="#0A7A6C">KOF indicators</text>
  <rect x="155" y="286" width="105" height="36" rx="5" fill="#0D9B8A" fill-opacity="0.08" stroke="#0D9B8A" stroke-width="0.6"/>
  <text x="207" y="309" text-anchor="middle" font-size="10.5" font-weight="500" fill="#0A7A6C">ASPI futures</text>

  <rect x="300" y="154" width="200" height="36" rx="5" fill="#C0284A" fill-opacity="0.08" stroke="#C0284A" stroke-width="0.6"/>
  <text x="400" y="177" text-anchor="middle" font-size="10.5" font-weight="500" fill="#9A1E3A">RCA / RTA analysis</text>
  <rect x="300" y="198" width="200" height="36" rx="5" fill="#C0284A" fill-opacity="0.08" stroke="#C0284A" stroke-width="0.6"/>
  <text x="400" y="221" text-anchor="middle" font-size="10.5" font-weight="500" fill="#9A1E3A">Relatedness mapping</text>
  <rect x="300" y="242" width="200" height="36" rx="5" fill="#C0284A" fill-opacity="0.08" stroke="#C0284A" stroke-width="0.6"/>
  <text x="400" y="265" text-anchor="middle" font-size="10.5" font-weight="500" fill="#9A1E3A">Future technology scan</text>
  <rect x="300" y="286" width="200" height="36" rx="5" fill="#C0284A" fill-opacity="0.08" stroke="#C0284A" stroke-width="0.6"/>
  <text x="400" y="309" text-anchor="middle" font-size="10.5" font-weight="500" fill="#9A1E3A">Expert interviews</text>

  <rect x="550" y="154" width="200" height="36" rx="5" fill="#D48A20" fill-opacity="0.1" stroke="#D48A20" stroke-width="0.6"/>
  <text x="650" y="177" text-anchor="middle" font-size="10.5" font-weight="500" fill="#A86A12">Cluster identification</text>
  <rect x="550" y="198" width="200" height="36" rx="5" fill="#D48A20" fill-opacity="0.1" stroke="#D48A20" stroke-width="0.6"/>
  <text x="650" y="221" text-anchor="middle" font-size="10.5" font-weight="500" fill="#A86A12">Benchmarking</text>
  <rect x="550" y="242" width="200" height="36" rx="5" fill="#D48A20" fill-opacity="0.1" stroke="#D48A20" stroke-width="0.6"/>
  <text x="650" y="265" text-anchor="middle" font-size="10.5" font-weight="500" fill="#A86A12">Policy priorities</text>
  <rect x="550" y="286" width="200" height="36" rx="5" fill="#D48A20" fill-opacity="0.1" stroke="#D48A20" stroke-width="0.6"/>
  <text x="650" y="309" text-anchor="middle" font-size="10.5" font-weight="500" fill="#A86A12">Support design</text>

  <text x="400" y="360" text-anchor="middle" font-size="10.5" fill="#7A8A9A">All analyses conducted at the firm level. Eight complementary datasets combined;</text>
  <text x="400" y="376" text-anchor="middle" font-size="10.5" fill="#7A8A9A">clusters identified where specialisation patterns recur across multiple sources.</text>
  <text x="400" y="392" text-anchor="middle" font-size="10.5" fill="#7A8A9A">Qualitative expert interviews validate and contextualise the quantitative findings.</text>
</svg>
