<svg xmlns="http://www.w3.org/2000/svg" viewBox="0 0 800 440" font-family="-apple-system,BlinkMacSystemFont,'Segoe UI',system-ui,sans-serif">
  <defs>
    <marker id="a" viewBox="0 0 10 10" refX="8" refY="5" markerWidth="6" markerHeight="6" orient="auto-start-reverse">
      <path d="M2 1L8 5L2 9" fill="none" stroke="#2A2028" stroke-width="1.5" stroke-linecap="round" stroke-linejoin="round"/>
    </marker>
  </defs>

  <text x="400" y="28" text-anchor="middle" font-size="17" font-weight="700" fill="#2A2028">Multi-source data integration</text>
  <text x="400" y="48" text-anchor="middle" font-size="12" fill="#7A8A9A">Eight complementary layers, no single source decisive</text>

  <rect x="40" y="72" width="170" height="52" rx="6" fill="#0D9B8A" fill-opacity="0.12" stroke="#0D9B8A" stroke-width="1"/>
  <text x="125" y="93" text-anchor="middle" font-size="12" font-weight="600" fill="#0A7A6C">PATSTAT</text>
  <text x="125" y="110" text-anchor="middle" font-size="10" fill="#0D9B8A">Patents</text>

  <rect x="220" y="72" width="170" height="52" rx="6" fill="#0D9B8A" fill-opacity="0.12" stroke="#0D9B8A" stroke-width="1"/>
  <text x="305" y="93" text-anchor="middle" font-size="12" font-weight="600" fill="#0A7A6C">OpenAlex</text>
  <text x="305" y="110" text-anchor="middle" font-size="10" fill="#0D9B8A">Publications</text>

  <rect x="400" y="72" width="170" height="52" rx="6" fill="#0D9B8A" fill-opacity="0.12" stroke="#0D9B8A" stroke-width="1"/>
  <text x="485" y="93" text-anchor="middle" font-size="12" font-weight="600" fill="#0A7A6C">Orbis</text>
  <text x="485" y="110" text-anchor="middle" font-size="10" fill="#0D9B8A">Firms + industries</text>

  <rect x="580" y="72" width="180" height="52" rx="6" fill="#0D9B8A" fill-opacity="0.12" stroke="#0D9B8A" stroke-width="1"/>
  <text x="670" y="93" text-anchor="middle" font-size="12" font-weight="600" fill="#0A7A6C">KOF web scraper</text>
  <text x="670" y="110" text-anchor="middle" font-size="10" fill="#0D9B8A">AI product extraction</text>

  <rect x="40" y="140" width="170" height="52" rx="6" fill="#D48A20" fill-opacity="0.12" stroke="#D48A20" stroke-width="1"/>
  <text x="125" y="161" text-anchor="middle" font-size="12" font-weight="600" fill="#A86A12">Innosuisse</text>
  <text x="125" y="178" text-anchor="middle" font-size="10" fill="#D48A20">Science–industry links</text>

  <rect x="220" y="140" width="170" height="52" rx="6" fill="#D48A20" fill-opacity="0.12" stroke="#D48A20" stroke-width="1"/>
  <text x="305" y="161" text-anchor="middle" font-size="12" font-weight="600" fill="#A86A12">Revelio Labs</text>
  <text x="305" y="178" text-anchor="middle" font-size="10" fill="#D48A20">Workforce skills</text>

  <rect x="400" y="140" width="170" height="52" rx="6" fill="#D48A20" fill-opacity="0.12" stroke="#D48A20" stroke-width="1"/>
  <text x="485" y="161" text-anchor="middle" font-size="12" font-weight="600" fill="#A86A12">KOF surveys</text>
  <text x="485" y="178" text-anchor="middle" font-size="10" fill="#D48A20">Innovation indicators</text>

  <rect x="580" y="140" width="180" height="52" rx="6" fill="#D48A20" fill-opacity="0.12" stroke="#D48A20" stroke-width="1"/>
  <text x="670" y="161" text-anchor="middle" font-size="12" font-weight="600" fill="#A86A12">ASPI keywords</text>
  <text x="670" y="178" text-anchor="middle" font-size="10" fill="#D48A20">Future technologies</text>

  <line x1="125" y1="124" x2="125" y2="218" stroke="#0D9B8A" stroke-width="0.6" opacity="0.4"/>
  <line x1="305" y1="124" x2="305" y2="218" stroke="#0D9B8A" stroke-width="0.6" opacity="0.4"/>
  <line x1="485" y1="124" x2="485" y2="218" stroke="#0D9B8A" stroke-width="0.6" opacity="0.4"/>
  <line x1="670" y1="124" x2="670" y2="218" stroke="#0D9B8A" stroke-width="0.6" opacity="0.4"/>
  <line x1="125" y1="192" x2="125" y2="218" stroke="#D48A20" stroke-width="0.6" opacity="0.4"/>
  <line x1="305" y1="192" x2="305" y2="218" stroke="#D48A20" stroke-width="0.6" opacity="0.4"/>
  <line x1="485" y1="192" x2="485" y2="218" stroke="#D48A20" stroke-width="0.6" opacity="0.4"/>
  <line x1="670" y1="192" x2="670" y2="218" stroke="#D48A20" stroke-width="0.6" opacity="0.4"/>

  <line x1="40" y1="218" x2="760" y2="218" stroke="#2A2028" stroke-width="0.6" opacity="0.15"/>
  <line x1="400" y1="218" x2="400" y2="256" stroke="#2A2028" stroke-width="1.2" marker-end="url(#a)"/>

  <rect x="200" y="258" width="400" height="54" rx="8" fill="#C0284A" fill-opacity="0.1" stroke="#C0284A" stroke-width="1.2"/>
  <text x="400" y="280" text-anchor="middle" font-size="14" font-weight="700" fill="#9A1E3A">Analytical methods</text>
  <text x="400" y="298" text-anchor="middle" font-size="10.5" fill="#C0284A">RCA · RTA · relatedness · product space · ASPI classification</text>

  <line x1="400" y1="312" x2="400" y2="350" stroke="#2A2028" stroke-width="1.2" marker-end="url(#a)"/>

  <rect x="200" y="352" width="400" height="54" rx="8" fill="#C0284A" fill-opacity="0.18" stroke="#C0284A" stroke-width="1.2"/>
  <text x="400" y="374" text-anchor="middle" font-size="14" font-weight="700" fill="#9A1E3A">Innovation theme clusters</text>
  <text x="400" y="393" text-anchor="middle" font-size="10.5" fill="#C0284A">Validated by expert interviews + benchmarking</text>
</svg>
